<mxfile host="Electron" agent="Mozilla/5.0 (Windows NT 10.0; Win64; x64) AppleWebKit/537.36 (KHTML, like Gecko) draw.io/24.7.8 Chrome/128.0.6613.36 Electron/32.0.1 Safari/537.36" version="24.7.8">
  <diagram name="Pagina-1" id="lxCOVGXAF81MDdLaUDQM">
    <mxGraphModel dx="1050" dy="629" grid="1" gridSize="10" guides="1" tooltips="1" connect="1" arrows="1" fold="1" page="1" pageScale="1" pageWidth="827" pageHeight="1169" math="0" shadow="0">
      <root>
        <mxCell id="0" />
        <mxCell id="1" parent="0" />
        <mxCell id="km5MI__1yeUTXEVvCu6J-13" style="edgeStyle=orthogonalEdgeStyle;rounded=0;orthogonalLoop=1;jettySize=auto;html=1;entryX=0;entryY=0.5;entryDx=0;entryDy=0;" parent="1" source="km5MI__1yeUTXEVvCu6J-1" target="km5MI__1yeUTXEVvCu6J-7" edge="1">
          <mxGeometry relative="1" as="geometry" />
        </mxCell>
        <mxCell id="km5MI__1yeUTXEVvCu6J-14" style="edgeStyle=orthogonalEdgeStyle;rounded=0;orthogonalLoop=1;jettySize=auto;html=1;entryX=0;entryY=0.5;entryDx=0;entryDy=0;" parent="1" source="km5MI__1yeUTXEVvCu6J-1" target="km5MI__1yeUTXEVvCu6J-6" edge="1">
          <mxGeometry relative="1" as="geometry" />
        </mxCell>
        <mxCell id="km5MI__1yeUTXEVvCu6J-15" style="edgeStyle=orthogonalEdgeStyle;rounded=0;orthogonalLoop=1;jettySize=auto;html=1;entryX=0;entryY=0.5;entryDx=0;entryDy=0;" parent="1" source="km5MI__1yeUTXEVvCu6J-1" target="km5MI__1yeUTXEVvCu6J-5" edge="1">
          <mxGeometry relative="1" as="geometry" />
        </mxCell>
        <mxCell id="km5MI__1yeUTXEVvCu6J-16" style="edgeStyle=orthogonalEdgeStyle;rounded=0;orthogonalLoop=1;jettySize=auto;html=1;entryX=0;entryY=0.5;entryDx=0;entryDy=0;" parent="1" source="km5MI__1yeUTXEVvCu6J-1" target="km5MI__1yeUTXEVvCu6J-4" edge="1">
          <mxGeometry relative="1" as="geometry" />
        </mxCell>
        <mxCell id="km5MI__1yeUTXEVvCu6J-61" style="edgeStyle=orthogonalEdgeStyle;rounded=0;orthogonalLoop=1;jettySize=auto;html=1;entryX=0;entryY=0.5;entryDx=0;entryDy=0;endArrow=doubleBlock;endFill=1;" parent="1" source="km5MI__1yeUTXEVvCu6J-1" target="km5MI__1yeUTXEVvCu6J-60" edge="1">
          <mxGeometry relative="1" as="geometry" />
        </mxCell>
        <mxCell id="km5MI__1yeUTXEVvCu6J-1" value="UTENTE" style="rounded=0;whiteSpace=wrap;html=1;" parent="1" vertex="1">
          <mxGeometry x="10" y="250" width="120" height="60" as="geometry" />
        </mxCell>
        <mxCell id="km5MI__1yeUTXEVvCu6J-26" style="edgeStyle=orthogonalEdgeStyle;rounded=0;orthogonalLoop=1;jettySize=auto;html=1;entryX=0;entryY=0.5;entryDx=0;entryDy=0;fillColor=#000000;" parent="1" source="km5MI__1yeUTXEVvCu6J-3" target="km5MI__1yeUTXEVvCu6J-21" edge="1">
          <mxGeometry relative="1" as="geometry" />
        </mxCell>
        <mxCell id="km5MI__1yeUTXEVvCu6J-27" style="edgeStyle=orthogonalEdgeStyle;rounded=0;orthogonalLoop=1;jettySize=auto;html=1;entryX=0;entryY=0.5;entryDx=0;entryDy=0;" parent="1" source="km5MI__1yeUTXEVvCu6J-3" target="km5MI__1yeUTXEVvCu6J-22" edge="1">
          <mxGeometry relative="1" as="geometry" />
        </mxCell>
        <mxCell id="km5MI__1yeUTXEVvCu6J-28" style="edgeStyle=orthogonalEdgeStyle;rounded=0;orthogonalLoop=1;jettySize=auto;html=1;entryX=0;entryY=0.5;entryDx=0;entryDy=0;" parent="1" source="km5MI__1yeUTXEVvCu6J-3" target="km5MI__1yeUTXEVvCu6J-23" edge="1">
          <mxGeometry relative="1" as="geometry" />
        </mxCell>
        <mxCell id="km5MI__1yeUTXEVvCu6J-29" style="edgeStyle=orthogonalEdgeStyle;rounded=0;orthogonalLoop=1;jettySize=auto;html=1;entryX=0;entryY=0.5;entryDx=0;entryDy=0;" parent="1" source="km5MI__1yeUTXEVvCu6J-3" target="km5MI__1yeUTXEVvCu6J-24" edge="1">
          <mxGeometry relative="1" as="geometry" />
        </mxCell>
        <mxCell id="km5MI__1yeUTXEVvCu6J-64" style="edgeStyle=orthogonalEdgeStyle;rounded=0;orthogonalLoop=1;jettySize=auto;html=1;entryX=1;entryY=0.5;entryDx=0;entryDy=0;endArrow=doubleBlock;endFill=1;" parent="1" source="km5MI__1yeUTXEVvCu6J-3" target="km5MI__1yeUTXEVvCu6J-59" edge="1">
          <mxGeometry relative="1" as="geometry">
            <Array as="points">
              <mxPoint x="790" y="280" />
              <mxPoint x="790" y="280" />
            </Array>
          </mxGeometry>
        </mxCell>
        <mxCell id="km5MI__1yeUTXEVvCu6J-3" value="LIBRO" style="rounded=0;whiteSpace=wrap;html=1;" parent="1" vertex="1">
          <mxGeometry x="820" y="246.25" width="120" height="60" as="geometry" />
        </mxCell>
        <mxCell id="km5MI__1yeUTXEVvCu6J-4" value="" style="ellipse;whiteSpace=wrap;html=1;aspect=fixed;fillColor=#000000;" parent="1" vertex="1">
          <mxGeometry x="110" y="412.5" width="20" height="20" as="geometry" />
        </mxCell>
        <mxCell id="km5MI__1yeUTXEVvCu6J-5" value="" style="ellipse;whiteSpace=wrap;html=1;aspect=fixed;" parent="1" vertex="1">
          <mxGeometry x="110" y="382.5" width="20" height="20" as="geometry" />
        </mxCell>
        <mxCell id="km5MI__1yeUTXEVvCu6J-6" value="" style="ellipse;whiteSpace=wrap;html=1;aspect=fixed;" parent="1" vertex="1">
          <mxGeometry x="110" y="352.5" width="20" height="20" as="geometry" />
        </mxCell>
        <mxCell id="km5MI__1yeUTXEVvCu6J-7" value="" style="ellipse;whiteSpace=wrap;html=1;aspect=fixed;fillColor=#000000;" parent="1" vertex="1">
          <mxGeometry x="110" y="322.5" width="20" height="20" as="geometry" />
        </mxCell>
        <mxCell id="km5MI__1yeUTXEVvCu6J-9" value="ID_unico" style="text;html=1;align=center;verticalAlign=middle;whiteSpace=wrap;rounded=0;" parent="1" vertex="1">
          <mxGeometry x="130" y="317.5" width="60" height="30" as="geometry" />
        </mxCell>
        <mxCell id="km5MI__1yeUTXEVvCu6J-10" value="nome" style="text;html=1;align=center;verticalAlign=middle;whiteSpace=wrap;rounded=0;" parent="1" vertex="1">
          <mxGeometry x="120" y="345" width="60" height="35" as="geometry" />
        </mxCell>
        <mxCell id="km5MI__1yeUTXEVvCu6J-11" value="cognome" style="text;html=1;align=center;verticalAlign=middle;whiteSpace=wrap;rounded=0;" parent="1" vertex="1">
          <mxGeometry x="130" y="380" width="60" height="25" as="geometry" />
        </mxCell>
        <mxCell id="km5MI__1yeUTXEVvCu6J-12" value="e-mail" style="text;html=1;align=center;verticalAlign=middle;whiteSpace=wrap;rounded=0;" parent="1" vertex="1">
          <mxGeometry x="130" y="407.5" width="60" height="30" as="geometry" />
        </mxCell>
        <mxCell id="km5MI__1yeUTXEVvCu6J-17" value="ID_unico" style="text;html=1;align=center;verticalAlign=middle;whiteSpace=wrap;rounded=0;" parent="1" vertex="1">
          <mxGeometry x="930" y="316.25" width="60" height="30" as="geometry" />
        </mxCell>
        <mxCell id="km5MI__1yeUTXEVvCu6J-18" value="titolo" style="text;html=1;align=center;verticalAlign=middle;whiteSpace=wrap;rounded=0;" parent="1" vertex="1">
          <mxGeometry x="920" y="343.75" width="60" height="35" as="geometry" />
        </mxCell>
        <mxCell id="km5MI__1yeUTXEVvCu6J-19" value="anno_pubblicazione" style="text;html=1;align=center;verticalAlign=middle;whiteSpace=wrap;rounded=0;" parent="1" vertex="1">
          <mxGeometry x="960" y="378.75" width="60" height="25" as="geometry" />
        </mxCell>
        <mxCell id="km5MI__1yeUTXEVvCu6J-20" value="disponibilitÃ " style="text;html=1;align=center;verticalAlign=middle;whiteSpace=wrap;rounded=0;" parent="1" vertex="1">
          <mxGeometry x="940" y="403.75" width="60" height="30" as="geometry" />
        </mxCell>
        <mxCell id="km5MI__1yeUTXEVvCu6J-21" value="" style="ellipse;whiteSpace=wrap;html=1;aspect=fixed;fillColor=#000000;" parent="1" vertex="1">
          <mxGeometry x="910" y="321.25" width="20" height="20" as="geometry" />
        </mxCell>
        <mxCell id="km5MI__1yeUTXEVvCu6J-22" value="" style="ellipse;whiteSpace=wrap;html=1;aspect=fixed;" parent="1" vertex="1">
          <mxGeometry x="910" y="351.25" width="20" height="20" as="geometry" />
        </mxCell>
        <mxCell id="km5MI__1yeUTXEVvCu6J-23" value="" style="ellipse;whiteSpace=wrap;html=1;aspect=fixed;" parent="1" vertex="1">
          <mxGeometry x="910" y="381.25" width="20" height="20" as="geometry" />
        </mxCell>
        <mxCell id="km5MI__1yeUTXEVvCu6J-24" value="" style="ellipse;whiteSpace=wrap;html=1;aspect=fixed;" parent="1" vertex="1">
          <mxGeometry x="910" y="408.75" width="20" height="20" as="geometry" />
        </mxCell>
        <mxCell id="km5MI__1yeUTXEVvCu6J-30" value="ID_unico" style="text;html=1;align=center;verticalAlign=middle;whiteSpace=wrap;rounded=0;" parent="1" vertex="1">
          <mxGeometry x="530" y="325" width="60" height="30" as="geometry" />
        </mxCell>
        <mxCell id="km5MI__1yeUTXEVvCu6J-31" value="data_prestito" style="text;html=1;align=center;verticalAlign=middle;whiteSpace=wrap;rounded=0;" parent="1" vertex="1">
          <mxGeometry x="540" y="352.5" width="60" height="35" as="geometry" />
        </mxCell>
        <mxCell id="km5MI__1yeUTXEVvCu6J-32" value="data_ritorno" style="text;html=1;align=center;verticalAlign=middle;whiteSpace=wrap;rounded=0;" parent="1" vertex="1">
          <mxGeometry x="540" y="387.5" width="60" height="25" as="geometry" />
        </mxCell>
        <mxCell id="km5MI__1yeUTXEVvCu6J-34" value="" style="ellipse;whiteSpace=wrap;html=1;aspect=fixed;fillColor=#000000;" parent="1" vertex="1">
          <mxGeometry x="510" y="330" width="20" height="20" as="geometry" />
        </mxCell>
        <mxCell id="km5MI__1yeUTXEVvCu6J-35" value="" style="ellipse;whiteSpace=wrap;html=1;aspect=fixed;" parent="1" vertex="1">
          <mxGeometry x="510" y="360" width="20" height="20" as="geometry" />
        </mxCell>
        <mxCell id="km5MI__1yeUTXEVvCu6J-36" value="" style="ellipse;whiteSpace=wrap;html=1;aspect=fixed;" parent="1" vertex="1">
          <mxGeometry x="510" y="390" width="20" height="20" as="geometry" />
        </mxCell>
        <mxCell id="km5MI__1yeUTXEVvCu6J-37" value="" style="ellipse;whiteSpace=wrap;html=1;aspect=fixed;" parent="1" vertex="1">
          <mxGeometry x="510" y="417.5" width="20" height="20" as="geometry" />
        </mxCell>
        <mxCell id="km5MI__1yeUTXEVvCu6J-44" value="utenteRIF" style="text;html=1;align=center;verticalAlign=middle;whiteSpace=wrap;rounded=0;" parent="1" vertex="1">
          <mxGeometry x="540" y="412.5" width="60" height="30" as="geometry" />
        </mxCell>
        <mxCell id="km5MI__1yeUTXEVvCu6J-54" style="edgeStyle=orthogonalEdgeStyle;rounded=0;orthogonalLoop=1;jettySize=auto;html=1;entryX=0;entryY=0.5;entryDx=0;entryDy=0;" parent="1" source="km5MI__1yeUTXEVvCu6J-53" target="km5MI__1yeUTXEVvCu6J-34" edge="1">
          <mxGeometry relative="1" as="geometry" />
        </mxCell>
        <mxCell id="km5MI__1yeUTXEVvCu6J-55" style="edgeStyle=orthogonalEdgeStyle;rounded=0;orthogonalLoop=1;jettySize=auto;html=1;entryX=0;entryY=0.5;entryDx=0;entryDy=0;" parent="1" source="km5MI__1yeUTXEVvCu6J-53" target="km5MI__1yeUTXEVvCu6J-35" edge="1">
          <mxGeometry relative="1" as="geometry" />
        </mxCell>
        <mxCell id="km5MI__1yeUTXEVvCu6J-56" style="edgeStyle=orthogonalEdgeStyle;rounded=0;orthogonalLoop=1;jettySize=auto;html=1;entryX=0;entryY=0.5;entryDx=0;entryDy=0;" parent="1" source="km5MI__1yeUTXEVvCu6J-53" target="km5MI__1yeUTXEVvCu6J-36" edge="1">
          <mxGeometry relative="1" as="geometry" />
        </mxCell>
        <mxCell id="km5MI__1yeUTXEVvCu6J-57" style="edgeStyle=orthogonalEdgeStyle;rounded=0;orthogonalLoop=1;jettySize=auto;html=1;entryX=0;entryY=0.5;entryDx=0;entryDy=0;" parent="1" source="km5MI__1yeUTXEVvCu6J-53" target="km5MI__1yeUTXEVvCu6J-37" edge="1">
          <mxGeometry relative="1" as="geometry" />
        </mxCell>
        <mxCell id="km5MI__1yeUTXEVvCu6J-62" style="edgeStyle=orthogonalEdgeStyle;rounded=0;orthogonalLoop=1;jettySize=auto;html=1;entryX=0;entryY=0.5;entryDx=0;entryDy=0;" parent="1" source="km5MI__1yeUTXEVvCu6J-53" target="km5MI__1yeUTXEVvCu6J-59" edge="1">
          <mxGeometry relative="1" as="geometry" />
        </mxCell>
        <mxCell id="km5MI__1yeUTXEVvCu6J-63" style="edgeStyle=orthogonalEdgeStyle;rounded=0;orthogonalLoop=1;jettySize=auto;html=1;entryX=1;entryY=0.5;entryDx=0;entryDy=0;" parent="1" source="km5MI__1yeUTXEVvCu6J-53" target="km5MI__1yeUTXEVvCu6J-60" edge="1">
          <mxGeometry relative="1" as="geometry" />
        </mxCell>
        <mxCell id="uqGTmkLzH_tymZj7xfAm-3" style="edgeStyle=orthogonalEdgeStyle;rounded=0;orthogonalLoop=1;jettySize=auto;html=1;entryX=0;entryY=0.5;entryDx=0;entryDy=0;" edge="1" parent="1" source="km5MI__1yeUTXEVvCu6J-53" target="uqGTmkLzH_tymZj7xfAm-1">
          <mxGeometry relative="1" as="geometry" />
        </mxCell>
        <mxCell id="km5MI__1yeUTXEVvCu6J-53" value="PRESTITO" style="rounded=0;whiteSpace=wrap;html=1;" parent="1" vertex="1">
          <mxGeometry x="420" y="250" width="120" height="60" as="geometry" />
        </mxCell>
        <mxCell id="km5MI__1yeUTXEVvCu6J-59" value="riguarda" style="rhombus;whiteSpace=wrap;html=1;" parent="1" vertex="1">
          <mxGeometry x="630" y="240" width="80" height="80" as="geometry" />
        </mxCell>
        <mxCell id="km5MI__1yeUTXEVvCu6J-60" value="effettua" style="rhombus;whiteSpace=wrap;html=1;" parent="1" vertex="1">
          <mxGeometry x="240" y="240" width="80" height="80" as="geometry" />
        </mxCell>
        <mxCell id="km5MI__1yeUTXEVvCu6J-66" value="" style="endArrow=none;html=1;rounded=0;" parent="1" edge="1">
          <mxGeometry width="50" height="50" relative="1" as="geometry">
            <mxPoint x="150" y="300" as="sourcePoint" />
            <mxPoint x="150" y="260" as="targetPoint" />
          </mxGeometry>
        </mxCell>
        <mxCell id="km5MI__1yeUTXEVvCu6J-68" value="" style="endArrow=none;html=1;rounded=0;" parent="1" edge="1">
          <mxGeometry width="50" height="50" relative="1" as="geometry">
            <mxPoint x="800" y="305.13" as="sourcePoint" />
            <mxPoint x="800" y="254.88" as="targetPoint" />
          </mxGeometry>
        </mxCell>
        <mxCell id="uqGTmkLzH_tymZj7xfAm-1" value="" style="ellipse;whiteSpace=wrap;html=1;aspect=fixed;" vertex="1" parent="1">
          <mxGeometry x="510" y="442.5" width="20" height="20" as="geometry" />
        </mxCell>
        <mxCell id="uqGTmkLzH_tymZj7xfAm-2" value="libroRIF" style="text;html=1;align=center;verticalAlign=middle;whiteSpace=wrap;rounded=0;" vertex="1" parent="1">
          <mxGeometry x="540" y="437.5" width="60" height="30" as="geometry" />
        </mxCell>
      </root>
    </mxGraphModel>
  </diagram>
</mxfile>
